<svg width="434" height="55" viewBox="0 0 434 55" fill="none" xmlns="http://www.w3.org/2000/svg">
<rect y="21.7031" width="10.8511" height="10.8511" fill="#039855"/>
<rect x="32.5547" y="32.5547" width="10.8512" height="10.8511" transform="rotate(180 32.5547 32.5547)" fill="#027A48"/>
<path d="M10.8516 21.7027L21.7027 10.8516V21.7027L10.8516 32.5538V21.7027Z" fill="#A6F4C5"/>
<path d="M21.7031 32.5532L10.852 43.4043L10.852 32.5532L21.7031 21.702L21.7031 32.5532Z" fill="#6CE9A6"/>
<path d="M0 21.7023L21.7023 0V10.8511L10.8511 21.7023H0Z" fill="#32D583"/>
<path d="M32.5547 32.5536L10.8524 54.2559L10.8524 43.4047L21.7035 32.5536L32.5547 32.5536Z" fill="#12B76A"/>
<path d="M56.1883 38.7477C54.4792 38.7477 52.8229 38.5051 51.2194 38.0198C49.6369 37.5345 48.3815 36.891 47.4531 36.0892L48.8773 32.8926C49.7846 33.61 50.8923 34.2008 52.2005 34.665C53.5298 35.1081 54.859 35.3296 56.1883 35.3296C57.8341 35.3296 59.0578 35.0659 59.8596 34.5384C60.6825 34.0109 61.0939 33.3146 61.0939 32.4495C61.0939 31.8166 60.8618 31.2996 60.3976 30.8987C59.9546 30.4767 59.3849 30.1497 58.6886 29.9176C57.9923 29.6855 57.0428 29.4218 55.8402 29.1264C54.1522 28.7255 52.7807 28.3246 51.7258 27.9237C50.6919 27.5228 49.7952 26.9004 49.0356 26.0564C48.2971 25.1913 47.9279 24.0308 47.9279 22.575C47.9279 21.3512 48.2549 20.2435 48.909 19.2518C49.5842 18.239 50.5864 17.4373 51.9157 16.8465C53.266 16.2557 54.9118 15.9603 56.8529 15.9603C58.2033 15.9603 59.5326 16.1291 60.8407 16.4667C62.1489 16.8043 63.2777 17.2896 64.2272 17.9225L62.9296 21.1191C61.959 20.5494 60.9462 20.1169 59.8913 19.8215C58.8363 19.5261 57.813 19.3784 56.8213 19.3784C55.1966 19.3784 53.9834 19.6527 53.1816 20.2013C52.4009 20.7499 52.0106 21.4778 52.0106 22.3851C52.0106 23.0181 52.2322 23.535 52.6752 23.9359C53.1394 24.3368 53.7197 24.6533 54.4159 24.8854C55.1122 25.1175 56.0617 25.3812 57.2644 25.6766C58.9101 26.0564 60.2605 26.4573 61.3155 26.8793C62.3704 27.2802 63.2672 27.9026 64.0057 28.7466C64.7652 29.5906 65.145 30.7299 65.145 32.1647C65.145 33.3885 64.8074 34.4962 64.1323 35.4879C63.4782 36.4795 62.4759 37.2708 61.1256 37.8616C59.7752 38.4523 58.1295 38.7477 56.1883 38.7477Z" fill="black"/>
<path d="M68.845 21.5306H72.8012V38.4312H68.845V21.5306ZM70.8389 18.7454C70.1215 18.7454 69.5202 18.5239 69.0349 18.0808C68.5496 17.6166 68.307 17.0469 68.307 16.3717C68.307 15.6966 68.5496 15.1374 69.0349 14.6943C69.5202 14.2301 70.1215 13.998 70.8389 13.998C71.5563 13.998 72.1576 14.2196 72.6429 14.6627C73.1282 15.0847 73.3709 15.6227 73.3709 16.2768C73.3709 16.9731 73.1282 17.5639 72.6429 18.0491C72.1787 18.5133 71.5774 18.7454 70.8389 18.7454Z" fill="black"/>
<path d="M83.2157 38.6528C81.8443 38.6528 80.5044 38.4734 79.1963 38.1147C77.8881 37.7561 76.8437 37.3024 76.063 36.7538L77.5822 33.7472C78.3418 34.2535 79.249 34.665 80.304 34.9815C81.3801 35.2769 82.435 35.4246 83.4689 35.4246C85.8321 35.4246 87.0136 34.8021 87.0136 33.5573C87.0136 32.9665 86.7077 32.555 86.0958 32.3229C85.505 32.0908 84.545 31.8693 83.2157 31.6583C81.8232 31.4473 80.6838 31.2047 79.7976 30.9304C78.9325 30.6561 78.173 30.1813 77.5189 29.5062C76.8859 28.8099 76.5694 27.8499 76.5694 26.6261C76.5694 25.0225 77.234 23.746 78.5633 22.7965C79.9137 21.826 81.7282 21.3407 84.007 21.3407C85.1674 21.3407 86.3279 21.4778 87.4884 21.7521C88.6488 22.0053 89.5983 22.3534 90.3368 22.7965L88.8176 25.8032C87.3829 24.9592 85.7688 24.5372 83.9753 24.5372C82.8148 24.5372 81.9287 24.7166 81.3168 25.0753C80.726 25.4129 80.4306 25.8665 80.4306 26.4362C80.4306 27.0692 80.7471 27.5228 81.3801 27.7971C82.0342 28.0503 83.0364 28.2929 84.3867 28.525C85.7371 28.736 86.8448 28.9787 87.7099 29.253C88.575 29.5273 89.3135 29.9914 89.9254 30.6455C90.5583 31.2996 90.8748 32.228 90.8748 33.4307C90.8748 35.0131 90.1891 36.2791 88.8176 37.2286C87.4462 38.178 85.5789 38.6528 83.2157 38.6528Z" fill="black"/>
<path d="M109.797 21.5306L101.885 39.7922C101.147 41.6278 100.25 42.9149 99.1949 43.6534C98.1399 44.4129 96.8634 44.7927 95.3653 44.7927C94.5213 44.7927 93.6879 44.6556 92.865 44.3813C92.0421 44.107 91.367 43.7272 90.8395 43.2419L92.4219 40.3302C92.8017 40.6889 93.2448 40.9737 93.7512 41.1847C94.2787 41.3957 94.8062 41.5012 95.3337 41.5012C96.0299 41.5012 96.5996 41.3219 97.0427 40.9632C97.5069 40.6045 97.9289 40.0031 98.3087 39.1592L98.5935 38.4945L91.2193 21.5306H95.3337L100.651 34.032L105.999 21.5306H109.797Z" fill="black"/>
<path d="M121.638 21.3407C123.284 21.3407 124.75 21.6994 126.037 22.4167C127.345 23.1341 128.369 24.1469 129.107 25.4551C129.846 26.7632 130.215 28.2718 130.215 29.9809C130.215 31.69 129.846 33.2091 129.107 34.5384C128.369 35.8466 127.345 36.8593 126.037 37.5767C124.75 38.2941 123.284 38.6528 121.638 38.6528C119.359 38.6528 117.555 37.8932 116.226 36.374V44.5712H112.27V21.5306H116.036V23.746C116.69 22.9442 117.492 22.3429 118.442 21.942C119.412 21.5411 120.478 21.3407 121.638 21.3407ZM121.195 35.2663C122.651 35.2663 123.843 34.781 124.771 33.8105C125.721 32.8399 126.196 31.5634 126.196 29.9809C126.196 28.3984 125.721 27.1219 124.771 26.1513C123.843 25.1808 122.651 24.6955 121.195 24.6955C120.246 24.6955 119.391 24.917 118.631 25.3601C117.872 25.7821 117.271 26.394 116.827 27.1958C116.384 27.9975 116.163 28.9259 116.163 29.9809C116.163 31.0359 116.384 31.9642 116.827 32.766C117.271 33.5678 117.872 34.1902 118.631 34.6333C119.391 35.0553 120.246 35.2663 121.195 35.2663Z" fill="black"/>
<path d="M143.557 21.3407C145.688 21.3407 147.397 21.9631 148.684 23.208C149.971 24.4528 150.614 26.299 150.614 28.7466V38.4312H146.658V29.253C146.658 27.776 146.31 26.6683 145.614 25.9298C144.918 25.1702 143.926 24.7904 142.639 24.7904C141.183 24.7904 140.033 25.2335 139.189 26.1197C138.345 26.9848 137.923 28.2402 137.923 29.886V38.4312H133.967V14.9475H137.923V23.4928C138.577 22.7965 139.379 22.269 140.328 21.9103C141.299 21.5306 142.375 21.3407 143.557 21.3407Z" fill="black"/>
<path d="M171.996 21.5306V38.4312H168.229V36.2791C167.596 37.0387 166.805 37.6295 165.856 38.0514C164.906 38.4523 163.883 38.6528 162.786 38.6528C160.528 38.6528 158.745 38.0303 157.437 36.7855C156.15 35.5195 155.506 33.6522 155.506 31.1836V21.5306H159.463V30.6455C159.463 32.1647 159.8 33.3041 160.475 34.0636C161.172 34.8021 162.153 35.1714 163.419 35.1714C164.832 35.1714 165.951 34.7388 166.774 33.8738C167.618 32.9876 168.04 31.7216 168.04 30.0758V21.5306H171.996Z" fill="black"/>
<path d="M182.398 38.6528C181.026 38.6528 179.686 38.4734 178.378 38.1147C177.07 37.7561 176.026 37.3024 175.245 36.7538L176.764 33.7472C177.524 34.2535 178.431 34.665 179.486 34.9815C180.562 35.2769 181.617 35.4246 182.651 35.4246C185.014 35.4246 186.196 34.8021 186.196 33.5573C186.196 32.9665 185.89 32.555 185.278 32.3229C184.687 32.0908 183.727 31.8693 182.398 31.6583C181.005 31.4473 179.866 31.2047 178.98 30.9304C178.114 30.6561 177.355 30.1813 176.701 29.5062C176.068 28.8099 175.751 27.8499 175.751 26.6261C175.751 25.0225 176.416 23.746 177.745 22.7965C179.096 21.826 180.91 21.3407 183.189 21.3407C184.349 21.3407 185.51 21.4778 186.67 21.7521C187.831 22.0053 188.78 22.3534 189.519 22.7965L188 25.8032C186.565 24.9592 184.951 24.5372 183.157 24.5372C181.997 24.5372 181.111 24.7166 180.499 25.0753C179.908 25.4129 179.613 25.8665 179.613 26.4362C179.613 27.0692 179.929 27.5228 180.562 27.7971C181.216 28.0503 182.218 28.2929 183.569 28.525C184.919 28.736 186.027 28.9787 186.892 29.253C187.757 29.5273 188.495 29.9914 189.107 30.6455C189.74 31.2996 190.057 32.228 190.057 33.4307C190.057 35.0131 189.371 36.2791 188 37.2286C186.628 38.178 184.761 38.6528 182.398 38.6528Z" fill="black"/>
<path d="M277.893 2.25977C264.159 2.25977 253.025 13.3932 253.025 27.127C253.025 40.8608 264.159 51.9942 277.893 51.9942C290.214 51.9942 300.443 43.0326 302.416 31.2715H302.238C300.397 38.4218 293.906 43.7052 286.182 43.7052C277.026 43.7052 269.604 36.2829 269.604 27.127C269.604 17.9711 277.026 10.5488 286.182 10.5488C293.906 10.5488 300.397 15.8322 302.238 22.9825H302.416C300.443 11.2214 290.214 2.25977 277.893 2.25977Z" fill="#A4BCFD"/>
<path d="M253.025 27.127C253.025 13.3932 264.159 2.25977 277.893 2.25977C290.214 2.25977 300.443 11.2214 302.416 22.9825H285.659C283.819 15.8322 277.328 10.5488 269.604 10.5488C260.448 10.5488 253.025 17.9711 253.025 27.127Z" fill="#3538CD"/>
<path d="M253.025 27.1269C253.025 40.8607 264.159 51.9941 277.893 51.9941C290.214 51.9941 300.443 43.0325 302.416 31.2714H285.659C283.819 38.4217 277.328 43.7051 269.604 43.7051C260.448 43.7051 253.025 36.2828 253.025 27.1269Z" fill="#3538CD"/>
<path d="M338.296 23.1785C337.588 18.0648 333.655 15.0977 328.552 15.0977C322.539 15.0977 318.01 19.4809 318.01 26.9212C318.01 34.3502 322.483 38.7447 328.552 38.7447C334.025 38.7447 337.656 35.2043 338.296 30.8099L334.093 30.7874C333.565 33.4848 331.362 35.002 328.608 35.002C324.877 35.002 322.202 32.2035 322.202 26.9212C322.202 21.7287 324.854 18.8403 328.619 18.8403C331.418 18.8403 333.61 20.425 334.093 23.1785H338.296Z" fill="black"/>
<path d="M346.903 38.7784C349.611 38.7784 351.23 37.5084 351.971 36.0585H352.106V38.43H356.017V26.8762C356.017 22.3131 352.297 20.942 349.004 20.942C345.374 20.942 342.587 22.5604 341.688 25.7073L345.486 26.2468C345.891 25.0667 347.037 24.0552 349.027 24.0552C350.915 24.0552 351.949 25.0218 351.949 26.7189V26.7863C351.949 27.9551 350.724 28.0113 347.678 28.3373C344.329 28.6969 341.126 29.6972 341.126 33.5859C341.126 36.9801 343.61 38.7784 346.903 38.7784ZM347.959 35.7888C346.262 35.7888 345.048 35.0133 345.048 33.5185C345.048 31.9563 346.408 31.3044 348.229 31.0459C349.297 30.8998 351.432 30.63 351.96 30.203V32.2372C351.96 34.1591 350.409 35.7888 347.959 35.7888Z" fill="black"/>
<path d="M368.729 21.1668H365.323V17.0308H361.255V21.1668H358.805V24.3137H361.255V33.9119C361.232 37.1599 363.593 38.7559 366.65 38.666C367.807 38.6323 368.605 38.4075 369.044 38.2614L368.358 35.0807C368.133 35.1369 367.672 35.2381 367.167 35.2381C366.144 35.2381 365.323 34.8784 365.323 33.2375V24.3137H368.729V21.1668Z" fill="black"/>
<path d="M377.099 38.7784C379.808 38.7784 381.426 37.5084 382.168 36.0585H382.303V38.43H386.214V26.8762C386.214 22.3131 382.494 20.942 379.201 20.942C375.571 20.942 372.783 22.5604 371.884 25.7073L375.683 26.2468C376.088 25.0667 377.234 24.0552 379.223 24.0552C381.111 24.0552 382.145 25.0218 382.145 26.7189V26.7863C382.145 27.9551 380.92 28.0113 377.875 28.3373C374.525 28.6969 371.322 29.6972 371.322 33.5859C371.322 36.9801 373.806 38.7784 377.099 38.7784ZM378.156 35.7888C376.459 35.7888 375.245 35.0133 375.245 33.5185C375.245 31.9563 376.605 31.3044 378.425 31.0459C379.493 30.8998 381.628 30.63 382.157 30.203V32.2372C382.157 34.1591 380.606 35.7888 378.156 35.7888Z" fill="black"/>
<path d="M394.374 15.4124H390.305V38.43H394.374V15.4124Z" fill="black"/>
<path d="M406.087 38.7671C411.145 38.7671 414.359 35.2043 414.359 29.8658C414.359 24.516 411.145 20.942 406.087 20.942C401.03 20.942 397.816 24.516 397.816 29.8658C397.816 35.2043 401.03 38.7671 406.087 38.7671ZM406.11 35.5078C403.311 35.5078 401.94 33.0127 401.94 29.8546C401.94 26.6964 403.311 24.1676 406.11 24.1676C408.864 24.1676 410.235 26.6964 410.235 29.8546C410.235 33.0127 408.864 35.5078 406.11 35.5078Z" fill="black"/>
<path d="M425.32 45.2633C429.985 45.2633 433.424 43.1279 433.424 38.7109V21.1668H429.411V24.0215H429.187C428.568 22.7739 427.276 20.942 424.23 20.942C420.24 20.942 417.105 24.0664 417.105 29.7422C417.105 35.3729 420.24 38.1827 424.219 38.1827C427.175 38.1827 428.557 36.598 429.187 35.328H429.389V38.5985C429.389 41.1386 427.703 42.1838 425.388 42.1838C422.938 42.1838 421.859 41.0262 421.364 40.0147L417.7 40.9026C418.442 43.319 420.926 45.2633 425.32 45.2633ZM425.354 34.9908C422.668 34.9908 421.252 32.9003 421.252 29.7197C421.252 26.584 422.645 24.28 425.354 24.28C427.973 24.28 429.411 26.4491 429.411 29.7197C429.411 33.0127 427.95 34.9908 425.354 34.9908Z" fill="black"/>
</svg>
