<svg width="471" height="55" viewBox="0 0 471 55" fill="none" xmlns="http://www.w3.org/2000/svg">
<path fill-rule="evenodd" clip-rule="evenodd" d="M24.8672 41.2184C32.6497 41.2184 38.9587 34.9095 38.9587 27.127C38.9587 19.3445 32.6497 13.0356 24.8672 13.0356C17.0847 13.0356 10.7758 19.3445 10.7758 27.127C10.7758 34.9095 17.0847 41.2184 24.8672 41.2184ZM24.8672 51.9942C38.601 51.9942 49.7345 40.8608 49.7345 27.127C49.7345 13.3932 38.601 2.25977 24.8672 2.25977C11.1334 2.25977 0 13.3932 0 27.127C0 40.8608 11.1334 51.9942 24.8672 51.9942Z" fill="#6938EF"/>
<path d="M25.1547 27.6714C27.7444 25.0818 31.9431 25.0818 34.5328 27.6714L47.4275 40.5662C50.0172 43.1559 50.0172 47.3546 47.4275 49.9442C44.8379 52.5339 40.6392 52.5339 38.0495 49.9442L25.1547 37.0495C22.5651 34.4598 22.5651 30.2611 25.1547 27.6714Z" fill="#F670C7"/>
<path d="M28.7734 40.6709L36.963 48.8605C40.8912 46.6697 44.1638 43.4449 46.4127 39.5541L38.2902 31.4316C36.8635 35.8845 33.2824 39.3731 28.7734 40.6709Z" fill="#6519BA"/>
<path d="M89.8823 40.8051C89.1649 41.6912 88.2893 42.3664 87.2554 42.8306C86.2426 43.2948 85.1243 43.5269 83.9006 43.5269C82.2548 43.5269 80.7673 43.1682 79.438 42.4508C78.1088 41.7545 76.5896 40.5097 74.8805 38.7162C72.8761 38.463 71.0826 37.8195 69.5002 36.7856C67.9388 35.7517 66.715 34.4225 65.8289 32.7978C64.9638 31.152 64.5312 29.3375 64.5312 27.3541C64.5312 25.1809 65.0482 23.2292 66.0821 21.499C67.137 19.7478 68.5823 18.3763 70.418 17.3846C72.2748 16.393 74.3531 15.8971 76.6529 15.8971C78.9527 15.8971 81.0205 16.393 82.8561 17.3846C84.6918 18.3763 86.1371 19.7478 87.1921 21.499C88.2471 23.2292 88.7745 25.1809 88.7745 27.3541C88.7745 29.9283 88.0466 32.1859 86.5907 34.1271C85.156 36.0682 83.2465 37.4186 80.8622 38.1782C81.3897 38.7268 81.8961 39.1171 82.3814 39.3492C82.8878 39.6024 83.4258 39.729 83.9955 39.729C85.367 39.729 86.5696 39.1804 87.6035 38.0832L89.8823 40.8051ZM69.7217 27.3541C69.7217 28.7256 70.0171 29.9494 70.6079 31.0254C71.2198 32.1015 72.0532 32.9455 73.1082 33.5574C74.1632 34.1482 75.3447 34.4436 76.6529 34.4436C77.9611 34.4436 79.1426 34.1482 80.1976 33.5574C81.2526 32.9455 82.0755 32.1015 82.6662 31.0254C83.2781 29.9494 83.5841 28.7256 83.5841 27.3541C83.5841 25.9827 83.2781 24.7589 82.6662 23.6828C82.0755 22.6068 81.2526 21.7733 80.1976 21.1825C79.1426 20.5707 77.9611 20.2647 76.6529 20.2647C75.3447 20.2647 74.1632 20.5707 73.1082 21.1825C72.0532 21.7733 71.2198 22.6068 70.6079 23.6828C70.0171 24.7589 69.7217 25.9827 69.7217 27.3541Z" fill="black"/>
<path d="M109.434 21.4041V38.4314H104.749V36.4058C104.095 37.1443 103.315 37.714 102.407 38.1149C101.5 38.4947 100.519 38.6846 99.4641 38.6846C97.2275 38.6846 95.4552 38.041 94.147 36.754C92.8388 35.4669 92.1847 33.5574 92.1847 31.0254V21.4041H97.122V30.2975C97.122 33.0404 98.2719 34.4119 100.572 34.4119C101.753 34.4119 102.703 34.0321 103.42 33.2725C104.138 32.4919 104.496 31.3419 104.496 29.8228V21.4041H109.434Z" fill="black"/>
<path d="M122.11 38.6846C120.316 38.6846 118.702 38.3153 117.267 37.5768C115.854 36.8173 114.746 35.7728 113.944 34.4436C113.143 33.1143 112.742 31.6057 112.742 29.9177C112.742 28.2298 113.143 26.7212 113.944 25.3919C114.746 24.0626 115.854 23.0287 117.267 22.2903C118.702 21.5307 120.316 21.1509 122.11 21.1509C123.903 21.1509 125.507 21.5307 126.92 22.2903C128.334 23.0287 129.442 24.0626 130.244 25.3919C131.045 26.7212 131.446 28.2298 131.446 29.9177C131.446 31.6057 131.045 33.1143 130.244 34.4436C129.442 35.7728 128.334 36.8173 126.92 37.5768C125.507 38.3153 123.903 38.6846 122.11 38.6846ZM122.11 34.6335C123.376 34.6335 124.41 34.2115 125.211 33.3675C126.034 32.5024 126.446 31.3525 126.446 29.9177C126.446 28.483 126.034 27.3436 125.211 26.4996C124.41 25.6345 123.376 25.202 122.11 25.202C120.844 25.202 119.799 25.6345 118.977 26.4996C118.154 27.3436 117.742 28.483 117.742 29.9177C117.742 31.3525 118.154 32.5024 118.977 33.3675C119.799 34.2115 120.844 34.6335 122.11 34.6335Z" fill="black"/>
<path d="M145.729 37.6085C145.243 37.9672 144.642 38.2415 143.925 38.4314C143.228 38.6002 142.49 38.6846 141.709 38.6846C139.684 38.6846 138.112 38.1676 136.994 37.1337C135.896 36.0999 135.348 34.5807 135.348 32.5763V25.5818H132.721V21.7839H135.348V17.6378H140.285V21.7839H144.526V25.5818H140.285V32.513C140.285 33.2303 140.464 33.7895 140.823 34.1904C141.203 34.5702 141.73 34.7601 142.406 34.7601C143.186 34.7601 143.851 34.5491 144.399 34.1271L145.729 37.6085Z" fill="black"/>
<path d="M148.5 21.4041H153.438V38.4314H148.5V21.4041ZM150.969 19.0304C150.062 19.0304 149.323 18.7667 148.753 18.2392C148.184 17.7117 147.899 17.0576 147.899 16.2769C147.899 15.4962 148.184 14.8422 148.753 14.3147C149.323 13.7872 150.062 13.5234 150.969 13.5234C151.876 13.5234 152.615 13.7766 153.184 14.283C153.754 14.7894 154.039 15.4224 154.039 16.182C154.039 17.0049 153.754 17.6906 153.184 18.2392C152.615 18.7667 151.876 19.0304 150.969 19.0304Z" fill="black"/>
<path d="M174.699 29.981C174.699 30.0443 174.667 30.4874 174.604 31.3103H161.723C161.955 32.3653 162.503 33.1987 163.368 33.8106C164.234 34.4225 165.31 34.7284 166.597 34.7284C167.483 34.7284 168.264 34.6018 168.939 34.3486C169.635 34.0743 170.279 33.6523 170.869 33.0826L173.496 35.9311C171.893 37.7667 169.551 38.6846 166.47 38.6846C164.55 38.6846 162.852 38.3153 161.375 37.5768C159.898 36.8173 158.758 35.7728 157.956 34.4436C157.155 33.1143 156.754 31.6057 156.754 29.9177C156.754 28.2509 157.144 26.7528 157.925 25.4235C158.727 24.0732 159.813 23.0287 161.185 22.2903C162.577 21.5307 164.128 21.1509 165.837 21.1509C167.504 21.1509 169.013 21.5096 170.363 22.227C171.713 22.9444 172.768 23.9782 173.528 25.3286C174.309 26.6579 174.699 28.2087 174.699 29.981ZM165.869 24.8855C164.751 24.8855 163.812 25.202 163.052 25.835C162.292 26.468 161.828 27.333 161.659 28.4302H170.046C169.878 27.3541 169.414 26.4996 168.654 25.8666C167.894 25.2125 166.966 24.8855 165.869 24.8855Z" fill="black"/>
<path d="M188.335 21.1509C190.445 21.1509 192.144 21.7839 193.431 23.0499C194.739 24.3158 195.393 26.1937 195.393 28.6834V38.4314H190.456V29.443C190.456 28.0926 190.16 27.0904 189.57 26.4363C188.979 25.7611 188.124 25.4235 187.006 25.4235C185.761 25.4235 184.769 25.8139 184.031 26.5946C183.292 27.3541 182.923 28.4935 182.923 30.0127V38.4314H177.986V21.4041H182.702V23.398C183.356 22.6806 184.168 22.132 185.139 21.7522C186.109 21.3513 187.175 21.1509 188.335 21.1509Z" fill="black"/>
<path d="M210.851 37.6085C210.365 37.9672 209.764 38.2415 209.047 38.4314C208.35 38.6002 207.612 38.6846 206.831 38.6846C204.806 38.6846 203.234 38.1676 202.116 37.1337C201.018 36.0999 200.47 34.5807 200.47 32.5763V25.5818H197.843V21.7839H200.47V17.6378H205.407V21.7839H209.648V25.5818H205.407V32.513C205.407 33.2303 205.586 33.7895 205.945 34.1904C206.325 34.5702 206.852 34.7601 207.528 34.7601C208.308 34.7601 208.973 34.5491 209.521 34.1271L210.851 37.6085Z" fill="black"/>
<path d="M281.134 37.7855C290.944 37.7855 298.897 29.833 298.897 20.0232C298.897 18.9114 298.795 17.8235 298.599 16.7683C297.544 16.5728 296.456 16.4707 295.344 16.4707C285.534 16.4707 277.582 24.4232 277.582 34.233C277.582 35.3448 277.684 36.4327 277.88 37.4879C278.935 37.6833 280.023 37.7855 281.134 37.7855Z" fill="#175CD3"/>
<path fill-rule="evenodd" clip-rule="evenodd" d="M277.879 37.4888C269.623 35.9599 263.371 28.7221 263.371 20.024C263.371 10.2142 271.324 2.26172 281.133 2.26172C289.831 2.26172 297.069 8.51377 298.598 16.7691C297.543 16.5737 296.455 16.4716 295.343 16.4716C285.533 16.4716 277.581 24.424 277.581 34.2339C277.581 35.3457 277.683 36.4336 277.879 37.4888Z" fill="#1570EF"/>
<path fill-rule="evenodd" clip-rule="evenodd" d="M281.134 37.7867C290.944 37.7867 298.896 29.8343 298.896 20.0244C298.896 18.9127 298.794 17.8247 298.599 16.7695C306.854 18.2984 313.106 25.5362 313.106 34.2343C313.106 44.0441 305.154 51.9966 295.344 51.9966C286.646 51.9966 279.408 45.7445 277.879 37.4892C278.934 37.6846 280.022 37.7867 281.134 37.7867Z" fill="#2E90FA"/>
<path d="M347.274 32.6714C346.641 34.7181 345.533 36.2478 343.951 37.2605C342.368 38.2522 340.522 38.7481 338.412 38.7481C336.344 38.7481 334.551 38.3155 333.032 37.4504C331.534 36.5854 330.373 35.351 329.55 33.7475C328.749 32.1439 328.348 30.2239 328.348 27.9873C328.348 25.7508 328.759 23.8307 329.582 22.2272C330.405 20.6236 331.565 19.3893 333.063 18.5242C334.561 17.6591 336.323 17.2266 338.349 17.2266C340.48 17.2266 342.305 17.6802 343.824 18.5875C345.364 19.4737 346.419 20.8241 346.989 22.6386L343.033 24.316C342.674 23.05 342.126 22.1533 341.387 21.6258C340.649 21.0772 339.699 20.803 338.539 20.803C336.809 20.803 335.427 21.4254 334.393 22.6703C333.38 23.894 332.873 25.6664 332.873 27.9873C332.873 30.2872 333.359 32.0595 334.329 33.3044C335.3 34.5493 336.703 35.1717 338.539 35.1717C339.678 35.1717 340.659 34.8658 341.482 34.2539C342.326 33.642 342.917 32.7136 343.254 31.4687L347.274 32.6714Z" fill="black"/>
<path d="M352.737 20.3282C350.944 20.3282 350.047 19.5581 350.047 18.0178C350.047 16.4565 350.944 15.6758 352.737 15.6758C354.531 15.6758 355.427 16.4565 355.427 18.0178C355.427 19.5581 354.531 20.3282 352.737 20.3282ZM354.889 22.607V38.4316H350.553V22.607H354.889Z" fill="black"/>
<path d="M359.486 38.4316V22.607H363.252L363.537 25.7086C363.938 24.6325 364.539 23.7991 365.341 23.2083C366.164 22.5964 367.197 22.2905 368.442 22.2905C369.181 22.2905 369.75 22.4065 370.151 22.6386L369.645 26.2783C369.434 26.215 369.17 26.1622 368.854 26.12C368.558 26.0567 368.168 26.0251 367.683 26.0251C367.029 26.0251 366.406 26.1833 365.815 26.4998C365.246 26.7952 364.771 27.2594 364.391 27.8924C364.011 28.5043 363.821 29.2849 363.821 30.2344V38.4316H359.486Z" fill="black"/>
<path d="M379.713 22.2905C381.823 22.2905 383.458 22.7441 384.618 23.6514C385.8 24.5587 386.581 25.6558 386.96 26.9429L382.909 28.3988C382.487 26.4787 381.443 25.5187 379.776 25.5187C378.573 25.5187 377.635 25.9407 376.959 26.7847C376.305 27.6286 375.978 28.8841 375.978 30.5509C375.978 32.2389 376.316 33.4943 376.991 34.3172C377.687 35.1189 378.626 35.5198 379.808 35.5198C381.643 35.5198 382.741 34.5809 383.099 32.7031L387.024 33.969C386.665 35.3827 385.863 36.5326 384.618 37.4188C383.395 38.305 381.802 38.7481 379.839 38.7481C378.194 38.7481 376.748 38.421 375.503 37.7669C374.28 37.1128 373.33 36.1739 372.655 34.9502C371.98 33.7264 371.642 32.2494 371.642 30.5193C371.642 28.7891 371.98 27.3121 372.655 26.0884C373.351 24.8646 374.301 23.9257 375.503 23.2716C376.727 22.6175 378.13 22.2905 379.713 22.2905Z" fill="black"/>
<path d="M397.609 22.2905C399.191 22.2905 400.595 22.6175 401.818 23.2716C403.042 23.9257 403.992 24.8646 404.667 26.0884C405.363 27.3121 405.711 28.7891 405.711 30.5193C405.711 32.2494 405.363 33.7264 404.667 34.9502C403.992 36.1739 403.042 37.1128 401.818 37.7669C400.595 38.421 399.191 38.7481 397.609 38.7481C396.005 38.7481 394.592 38.421 393.368 37.7669C392.165 37.1128 391.216 36.1739 390.52 34.9502C389.844 33.7264 389.507 32.2494 389.507 30.5193C389.507 28.7891 389.844 27.3121 390.52 26.0884C391.216 24.8646 392.165 23.9257 393.368 23.2716C394.592 22.6175 396.005 22.2905 397.609 22.2905ZM397.609 25.5187C396.427 25.5187 395.499 25.9407 394.824 26.7847C394.17 27.6075 393.843 28.8524 393.843 30.5193C393.843 32.1861 394.17 33.4415 394.824 34.2855C395.499 35.1084 396.427 35.5198 397.609 35.5198C398.769 35.5198 399.677 35.1084 400.331 34.2855C401.006 33.4415 401.344 32.1861 401.344 30.5193C401.344 28.8524 401.006 27.6075 400.331 26.7847C399.677 25.9407 398.769 25.5187 397.609 25.5187Z" fill="black"/>
<path d="M416.555 22.2905C418.138 22.2905 419.541 22.6175 420.765 23.2716C421.988 23.9257 422.938 24.8646 423.613 26.0884C424.309 27.3121 424.657 28.7891 424.657 30.5193C424.657 32.2494 424.309 33.7264 423.613 34.9502C422.938 36.1739 421.988 37.1128 420.765 37.7669C419.541 38.421 418.138 38.7481 416.555 38.7481C414.952 38.7481 413.538 38.421 412.314 37.7669C411.112 37.1128 410.162 36.1739 409.466 34.9502C408.791 33.7264 408.453 32.2494 408.453 30.5193C408.453 28.7891 408.791 27.3121 409.466 26.0884C410.162 24.8646 411.112 23.9257 412.314 23.2716C413.538 22.6175 414.952 22.2905 416.555 22.2905ZM416.555 25.5187C415.374 25.5187 414.445 25.9407 413.77 26.7847C413.116 27.6075 412.789 28.8524 412.789 30.5193C412.789 32.1861 413.116 33.4415 413.77 34.2855C414.445 35.1084 415.374 35.5198 416.555 35.5198C417.716 35.5198 418.623 35.1084 419.277 34.2855C419.952 33.4415 420.29 32.1861 420.29 30.5193C420.29 28.8524 419.952 27.6075 419.277 26.7847C418.623 25.9407 417.716 25.5187 416.555 25.5187Z" fill="black"/>
<path d="M432.558 15.6758V33.5576C432.558 34.2961 432.685 34.813 432.938 35.1084C433.191 35.4038 433.613 35.5515 434.204 35.5515C434.563 35.5515 434.858 35.5304 435.09 35.4882C435.322 35.446 435.618 35.3616 435.976 35.235L435.596 38.0834C435.238 38.2944 434.784 38.4527 434.235 38.5582C433.708 38.6848 433.181 38.7481 432.653 38.7481C431.113 38.7481 429.984 38.3788 429.267 37.6403C428.57 36.8808 428.222 35.6781 428.222 34.0323V15.6758H432.558Z" fill="black"/>
<path d="M445.735 38.7481C443.245 38.7481 441.251 38.0307 439.753 36.5959C438.255 35.14 437.506 33.1145 437.506 30.5193C437.506 28.7891 437.844 27.3121 438.519 26.0884C439.194 24.8646 440.133 23.9257 441.336 23.2716C442.559 22.6175 443.952 22.2905 445.513 22.2905C447.117 22.2905 448.478 22.6175 449.596 23.2716C450.714 23.9046 451.569 24.7802 452.16 25.8985C452.75 26.9956 453.046 28.2511 453.046 29.6647C453.046 30.0867 453.035 30.4876 453.014 30.8674C452.993 31.2472 452.961 31.5848 452.919 31.8802H441.747C441.916 33.1039 442.338 34.0218 443.013 34.6337C443.709 35.2244 444.606 35.5198 445.703 35.5198C446.632 35.5198 447.381 35.3405 447.95 34.9818C448.52 34.6231 448.963 34.1273 449.28 33.4943L452.729 34.8236C452.223 36.0684 451.337 37.039 450.071 37.7353C448.805 38.4105 447.359 38.7481 445.735 38.7481ZM445.482 25.487C443.435 25.487 442.201 26.6159 441.779 28.8735H448.9C448.773 27.7763 448.414 26.9429 447.824 26.3732C447.254 25.7824 446.473 25.487 445.482 25.487Z" fill="black"/>
<path d="M463.05 38.7481C461.447 38.7481 459.98 38.4632 458.651 37.8935C457.343 37.3238 456.277 36.5221 455.454 35.4882L457.955 32.9563C458.461 33.7158 459.136 34.3383 459.98 34.8236C460.824 35.3088 461.826 35.5515 462.987 35.5515C463.81 35.5515 464.464 35.4354 464.949 35.2033C465.455 34.9502 465.709 34.5598 465.709 34.0323C465.709 33.6947 465.593 33.4099 465.361 33.1778C465.128 32.9246 464.664 32.7242 463.968 32.5765L461.183 32.0068C459.347 31.627 458.039 31.0573 457.258 30.2977C456.499 29.517 456.119 28.5148 456.119 27.291C456.119 26.426 456.372 25.6136 456.879 24.8541C457.406 24.0945 458.187 23.4826 459.221 23.0184C460.254 22.5331 461.542 22.2905 463.082 22.2905C466.289 22.2905 468.589 23.2716 469.981 25.2338L467.386 27.7658C466.922 27.0273 466.31 26.4682 465.55 26.0884C464.812 25.6875 464.031 25.487 463.208 25.487C461.352 25.487 460.423 26.004 460.423 27.0378C460.423 27.3754 460.571 27.6708 460.866 27.924C461.162 28.1561 461.7 28.3566 462.48 28.5254L465.709 29.19C467.27 29.5065 468.388 30.0445 469.063 30.8041C469.739 31.5426 470.076 32.4393 470.076 33.4943C470.076 35.0134 469.464 36.2689 468.241 37.2605C467.038 38.2522 465.308 38.7481 463.05 38.7481Z" fill="black"/>
</svg>
