<svg width="398" height="55" viewBox="0 0 398 55" fill="none" xmlns="http://www.w3.org/2000/svg">
<path d="M15.0085 25.2289C15.938 21.7607 19.5029 18.1958 22.9711 17.2663L44.5931 11.4719C48.0612 10.5424 50.1193 12.6005 49.1899 16.0686L43.3954 37.6907C42.4659 41.1588 38.901 44.7238 35.4328 45.6532L13.8108 51.4477C10.3427 52.3771 8.28462 50.3191 9.21405 46.8509L15.0085 25.2289Z" fill="#9E77ED"/>
<path d="M6.34056 16.5609C7.26999 13.0927 10.8349 9.5278 14.3031 8.59837L35.9251 2.80389C39.3933 1.87446 41.4513 3.9325 40.5219 7.40065L34.7274 29.0227C33.798 32.4908 30.2331 36.0558 26.7649 36.9852L5.14285 42.7797C1.67469 43.7091 -0.383351 41.6511 0.546077 38.1829L6.34056 16.5609Z" fill="#6941C6"/>
<path d="M69.2799 35.52H76.7174V38.4317H65.6719V16.4355H69.2799V35.52Z" fill="black"/>
<path d="M78.5321 29.6333C78.5321 27.882 78.8908 26.3312 79.6082 24.9808C80.3466 23.6305 81.3383 22.586 82.5832 21.8476C83.8491 21.088 85.2417 20.7082 86.7609 20.7082C88.1323 20.7082 89.3245 20.9825 90.3372 21.5311C91.3711 22.0586 92.194 22.7232 92.8059 23.525V20.993H96.4455V38.4317H92.8059V35.8365C92.194 36.6594 91.3606 37.3451 90.3056 37.8937C89.2506 38.4423 88.0479 38.7166 86.6976 38.7166C85.1995 38.7166 83.828 38.3368 82.5832 37.5772C81.3383 36.7965 80.3466 35.7205 79.6082 34.349C78.8908 32.9564 78.5321 31.3845 78.5321 29.6333ZM92.8059 29.6966C92.8059 28.4939 92.5527 27.4495 92.0463 26.5633C91.561 25.6771 90.9175 25.0019 90.1157 24.5377C89.3139 24.0736 88.4488 23.8415 87.5205 23.8415C86.5921 23.8415 85.727 24.0736 84.9252 24.5377C84.1234 24.9808 83.4694 25.6455 82.963 26.5316C82.4777 27.3967 82.235 28.4306 82.235 29.6333C82.235 30.8359 82.4777 31.8909 82.963 32.7982C83.4694 33.7055 84.1234 34.4017 84.9252 34.887C85.7481 35.3512 86.6132 35.5833 87.5205 35.5833C88.4488 35.5833 89.3139 35.3512 90.1157 34.887C90.9175 34.4228 91.561 33.7477 92.0463 32.8615C92.5527 31.9542 92.8059 30.8992 92.8059 29.6966Z" fill="black"/>
<path d="M116.883 20.993L106.185 46.6289H102.45L105.995 38.1469L99.1273 20.993H103.147L108.052 34.2857L113.148 20.993H116.883Z" fill="black"/>
<path d="M135.588 29.2851C135.588 29.9392 135.546 30.53 135.462 31.0575H122.137C122.243 32.45 122.76 33.5683 123.688 34.4123C124.616 35.2563 125.756 35.6783 127.106 35.6783C129.047 35.6783 130.419 34.8659 131.221 33.2413H135.113C134.586 34.8448 133.626 36.1636 132.233 37.1974C130.862 38.2102 129.153 38.7166 127.106 38.7166C125.439 38.7166 123.941 38.3473 122.612 37.6089C121.304 36.8493 120.27 35.7943 119.51 34.4439C118.772 33.0725 118.403 31.49 118.403 29.6966C118.403 27.9031 118.761 26.3312 119.479 24.9808C120.217 23.6094 121.241 22.5544 122.549 21.8159C123.878 21.0774 125.397 20.7082 127.106 20.7082C128.752 20.7082 130.218 21.0669 131.505 21.7843C132.792 22.5016 133.795 23.5144 134.512 24.8226C135.229 26.1097 135.588 27.5972 135.588 29.2851ZM131.822 28.1458C131.801 26.8165 131.326 25.751 130.398 24.9492C129.469 24.1474 128.319 23.7465 126.948 23.7465C125.703 23.7465 124.638 24.1474 123.751 24.9492C122.865 25.7299 122.338 26.7954 122.169 28.1458H131.822Z" fill="black"/>
<path d="M142.747 23.525C143.274 22.6388 143.971 21.9531 144.836 21.4678C145.722 20.9614 146.766 20.7082 147.969 20.7082V24.4428H147.051C145.637 24.4428 144.561 24.8015 143.823 25.5189C143.106 26.2363 142.747 27.4811 142.747 29.2535V38.4317H139.139V20.993H142.747V23.525Z" fill="black"/>
<path d="M157.615 38.7166C156.244 38.7166 155.009 38.4739 153.912 37.9887C152.836 37.4823 151.982 36.8071 151.349 35.9631C150.716 35.098 150.378 34.138 150.336 33.083H154.071C154.134 33.8215 154.482 34.4439 155.115 34.9503C155.769 35.4356 156.581 35.6783 157.552 35.6783C158.565 35.6783 159.345 35.4884 159.894 35.1086C160.464 34.7077 160.749 34.2013 160.749 33.5894C160.749 32.9353 160.432 32.45 159.799 32.1336C159.187 31.8171 158.206 31.4689 156.856 31.0891C155.548 30.7304 154.482 30.3823 153.659 30.0447C152.836 29.7071 152.119 29.1902 151.507 28.4939C150.916 27.7976 150.621 26.8798 150.621 25.7404C150.621 24.812 150.895 23.9681 151.444 23.2085C151.992 22.4278 152.773 21.8159 153.786 21.3728C154.82 20.9297 156.001 20.7082 157.33 20.7082C159.314 20.7082 160.907 21.2146 162.109 22.2274C163.333 23.219 163.987 24.5799 164.072 26.3101H160.464C160.4 25.5294 160.084 24.907 159.514 24.4428C158.945 23.9786 158.174 23.7465 157.204 23.7465C156.254 23.7465 155.526 23.9259 155.02 24.2846C154.514 24.6432 154.26 25.118 154.26 25.7088C154.26 26.173 154.429 26.5633 154.767 26.8798C155.104 27.1963 155.516 27.4495 156.001 27.6394C156.486 27.8082 157.204 28.0297 158.153 28.304C159.419 28.6416 160.453 28.9897 161.255 29.3484C162.078 29.686 162.785 30.1924 163.375 30.8676C163.966 31.5428 164.272 32.4395 164.293 33.5578C164.293 34.5494 164.019 35.4356 163.47 36.2163C162.922 36.997 162.141 37.6089 161.128 38.052C160.137 38.495 158.966 38.7166 157.615 38.7166Z" fill="black"/>
<path d="M241.896 2.25977C228.162 2.25977 217.028 13.3932 217.028 27.127C217.028 40.8608 228.162 51.9942 241.896 51.9942C254.217 51.9942 264.446 43.0326 266.419 31.2715H266.24C264.4 38.4218 257.909 43.7052 250.185 43.7052C241.029 43.7052 233.606 36.2829 233.606 27.127C233.606 17.9711 241.029 10.5488 250.185 10.5488C257.909 10.5488 264.4 15.8322 266.24 22.9825H266.419C264.446 11.2214 254.217 2.25977 241.896 2.25977Z" fill="#A4BCFD"/>
<path d="M217.028 27.127C217.028 13.3932 228.162 2.25977 241.896 2.25977C254.217 2.25977 264.446 11.2214 266.419 22.9825H249.662C247.822 15.8322 241.331 10.5488 233.606 10.5488C224.451 10.5488 217.028 17.9711 217.028 27.127Z" fill="#3538CD"/>
<path d="M217.028 27.1269C217.028 40.8607 228.162 51.9941 241.896 51.9941C254.217 51.9941 264.446 43.0325 266.419 31.2714H249.662C247.822 38.4217 241.331 43.7051 233.606 43.7051C224.451 43.7051 217.028 36.2828 217.028 27.1269Z" fill="#3538CD"/>
<path d="M302.299 23.1785C301.591 18.0648 297.657 15.0977 292.555 15.0977C286.542 15.0977 282.013 19.4809 282.013 26.9212C282.013 34.3502 286.486 38.7447 292.555 38.7447C298.028 38.7447 301.659 35.2043 302.299 30.8099L298.096 30.7874C297.568 33.4848 295.365 35.002 292.611 35.002C288.88 35.002 286.205 32.2035 286.205 26.9212C286.205 21.7287 288.857 18.8403 292.622 18.8403C295.421 18.8403 297.613 20.425 298.096 23.1785H302.299Z" fill="black"/>
<path d="M310.906 38.7784C313.614 38.7784 315.233 37.5084 315.974 36.0585H316.109V38.43H320.02V26.8762C320.02 22.3131 316.3 20.942 313.007 20.942C309.377 20.942 306.59 22.5604 305.691 25.7073L309.489 26.2468C309.894 25.0667 311.04 24.0552 313.03 24.0552C314.918 24.0552 315.952 25.0218 315.952 26.7189V26.7863C315.952 27.9551 314.727 28.0113 311.681 28.3373C308.332 28.6969 305.129 29.6972 305.129 33.5859C305.129 36.9801 307.612 38.7784 310.906 38.7784ZM311.962 35.7888C310.265 35.7888 309.051 35.0133 309.051 33.5185C309.051 31.9563 310.411 31.3044 312.232 31.0459C313.299 30.8998 315.435 30.63 315.963 30.203V32.2372C315.963 34.1591 314.412 35.7888 311.962 35.7888Z" fill="black"/>
<path d="M332.732 21.1668H329.326V17.0308H325.258V21.1668H322.808V24.3137H325.258V33.9119C325.235 37.1599 327.596 38.7559 330.653 38.666C331.81 38.6323 332.608 38.4075 333.046 38.2614L332.361 35.0807C332.136 35.1369 331.675 35.2381 331.17 35.2381C330.147 35.2381 329.326 34.8784 329.326 33.2375V24.3137H332.732V21.1668Z" fill="black"/>
<path d="M341.102 38.7784C343.811 38.7784 345.429 37.5084 346.171 36.0585H346.306V38.43H350.217V26.8762C350.217 22.3131 346.497 20.942 343.204 20.942C339.574 20.942 336.786 22.5604 335.887 25.7073L339.686 26.2468C340.091 25.0667 341.237 24.0552 343.226 24.0552C345.114 24.0552 346.148 25.0218 346.148 26.7189V26.7863C346.148 27.9551 344.923 28.0113 341.878 28.3373C338.528 28.6969 335.325 29.6972 335.325 33.5859C335.325 36.9801 337.809 38.7784 341.102 38.7784ZM342.159 35.7888C340.461 35.7888 339.248 35.0133 339.248 33.5185C339.248 31.9563 340.608 31.3044 342.428 31.0459C343.496 30.8998 345.631 30.63 346.16 30.203V32.2372C346.16 34.1591 344.609 35.7888 342.159 35.7888Z" fill="black"/>
<path d="M358.376 15.4124H354.308V38.43H358.376V15.4124Z" fill="black"/>
<path d="M370.09 38.7671C375.148 38.7671 378.362 35.2043 378.362 29.8658C378.362 24.516 375.148 20.942 370.09 20.942C365.033 20.942 361.818 24.516 361.818 29.8658C361.818 35.2043 365.033 38.7671 370.09 38.7671ZM370.113 35.5078C367.314 35.5078 365.943 33.0127 365.943 29.8546C365.943 26.6964 367.314 24.1676 370.113 24.1676C372.866 24.1676 374.238 26.6964 374.238 29.8546C374.238 33.0127 372.866 35.5078 370.113 35.5078Z" fill="black"/>
<path d="M389.323 45.2633C393.987 45.2633 397.427 43.1279 397.427 38.7109V21.1668H393.414V24.0215H393.189C392.571 22.7739 391.279 20.942 388.233 20.942C384.243 20.942 381.108 24.0664 381.108 29.7422C381.108 35.3729 384.243 38.1827 388.222 38.1827C391.178 38.1827 392.56 36.598 393.189 35.328H393.392V38.5985C393.392 41.1386 391.706 42.1838 389.391 42.1838C386.941 42.1838 385.862 41.0262 385.367 40.0147L381.703 40.9026C382.445 43.319 384.929 45.2633 389.323 45.2633ZM389.357 34.9908C386.671 34.9908 385.255 32.9003 385.255 29.7197C385.255 26.584 386.648 24.28 389.357 24.28C391.976 24.28 393.414 26.4491 393.414 29.7197C393.414 33.0127 391.953 34.9908 389.357 34.9908Z" fill="black"/>
</svg>
